<svg width="128" height="128" viewBox="0 0 128 128" fill="none" xmlns="http://www.w3.org/2000/svg">
  <rect width="128" height="128" rx="24" fill="#F0F0F0"/>
  <path d="M83.6 41.6L44.4 80.8C43.2 82 43.2 84 44.4 85.2C45.6 86.4 47.6 86.4 48.8 85.2L88 46C89.2 44.8 89.2 42.8 88 41.6C86.8 40.4 84.8 40.4 83.6 41.6Z" fill="#FF6C37"/>
  <path d="M64 36C48.536 36 36 48.536 36 64C36 79.464 48.536 92 64 92C79.464 92 92 79.464 92 64C92 48.536 79.464 36 64 36ZM64 84C52.954 84 44 75.046 44 64C44 52.954 52.954 44 64 44C75.046 44 84 52.954 84 64C84 75.046 75.046 84 64 84Z" fill="#FF6C37"/>
  <circle cx="64" cy="64" r="8" fill="#FF6C37"/>
</svg> 